<?xml version="1.0" encoding="UTF-8"?>
<svg id="Layer_8" data-name="Layer 8" xmlns="http://www.w3.org/2000/svg" viewBox="0 0 167.38 169.4">
  <defs>
    <style>
      .cls-1 {
        fill: #ccc;
      }

      .cls-2 {
        fill: #3b6d96;
      }
    </style>
  </defs>
  <path class="cls-2" d="M24.4,92.52h12.82c2.76,0,5,2.24,5,5v45.51c0,2.76-2.24,5-5,5h-12.82c-1.66,0-3-1.34-3-3v-49.51c0-1.66,1.34-3,3-3Z" transform="translate(63.61 240.54) rotate(180)"/>
  <path class="cls-2" d="M128.48,92.52h12.82c2.76,0,5,2.24,5,5v45.51c0,2.76-2.24,5-5,5h-12.82c-1.66,0-3-1.34-3-3v-49.51c0-1.66,1.34-3,3-3Z"/>
  <g>
    <rect class="cls-1" x="12.15" y="92.52" width="4.63" height="13.88" transform="translate(28.92 198.91) rotate(-180)"/>
    <rect class="cls-1" x="9.83" y="104.08" width="9.25" height="27.75" rx="2" ry="2" transform="translate(28.92 235.92) rotate(180)"/>
    <rect class="cls-1" x="19.08" y="113.33" width="2.31" height="11.56"/>
  </g>
  <rect class="cls-1" x="150.92" y="92.52" width="4.63" height="13.88"/>
  <rect class="cls-1" x="148.61" y="104.08" width="9.25" height="27.75" rx="2" ry="2"/>
  <rect class="cls-1" x="146.29" y="113.33" width="2.31" height="11.56"/>
  <path class="cls-2" d="M83.84,19.98C42.97,19.98,9.83,53.12,9.83,93.99c0,2.55,2.07,4.63,4.63,4.63s4.63-2.07,4.63-4.63c0-35.77,28.99-64.76,64.76-64.76s64.76,28.99,64.76,64.76c0,2.55,2.07,4.63,4.63,4.63s4.63-2.07,4.63-4.63c0-40.88-33.14-74.01-74.01-74.01Z"/>
</svg>