<?xml version="1.0" encoding="UTF-8"?>
<svg id="Layer_4" data-name="Layer 4" xmlns="http://www.w3.org/2000/svg" viewBox="0 0 167.38 169.4">
  <defs>
    <style>
      .cls-1, .cls-2, .cls-3 {
        stroke: #000;
        stroke-miterlimit: 10;
      }

      .cls-1, .cls-3 {
        fill: none;
      }

      .cls-2 {
        fill: #efefef;
        stroke-width: 2px;
      }

      .cls-3 {
        stroke-width: .75px;
      }
    </style>
  </defs>
  <rect class="cls-2" x="6.41" y="31.39" width="155.08" height="105.85" rx="5.09" ry="5.09"/>
  <line class="cls-1" x1="161.49" y1="106.47" x2="6.41" y2="106.47"/>
  <path d="M128.81,114.54l5.91,19.69H33.03l5.91-19.69h89.88m1.83-2.46H37.1l-7.38,24.62h108.31l-7.38-24.62h0Z"/>
  <path d="M118.33,70.23c4.07,0,7.38,3.31,7.38,7.38s-3.31,7.38-7.38,7.38H49.41c-4.07,0-7.38-3.31-7.38-7.38s3.31-7.38,7.38-7.38H118.33m0-4.92H49.41c-6.77,0-12.31,5.54-12.31,12.31s5.54,12.31,12.31,12.31H118.33c6.77,0,12.31-5.54,12.31-12.31s-5.54-12.31-12.31-12.31h0Z"/>
  <path d="M49.41,70.23c4.07,0,7.38,3.31,7.38,7.38s-3.31,7.38-7.38,7.38-7.38-3.31-7.38-7.38,3.31-7.38,7.38-7.38m0-2.46c-5.44,0-9.85,4.41-9.85,9.85s4.41,9.85,9.85,9.85,9.85-4.41,9.85-9.85-4.41-9.85-9.85-9.85h0Z"/>
  <path d="M118.33,70.23c4.07,0,7.38,3.31,7.38,7.38s-3.31,7.38-7.38,7.38-7.38-3.31-7.38-7.38,3.31-7.38,7.38-7.38m0-2.46c-5.44,0-9.85,4.41-9.85,9.85s4.41,9.85,9.85,9.85,9.85-4.41,9.85-9.85-4.41-9.85-9.85-9.85h0Z"/>
  <circle cx="150.34" cy="43.15" r="2.46"/>
  <circle cx="17.41" cy="43.15" r="2.46"/>
  <line class="cls-3" x1="117.18" y1="128.63" x2="45.8" y2="128.63"/>
  <line class="cls-3" x1="117.18" y1="123.7" x2="45.8" y2="123.7"/>
  <circle cx="48.26" cy="78.16" r="2.46"/>
  <circle cx="119.64" cy="78.16" r="2.46"/>
</svg>